#!OML:ASF E:\emotionWalksFemale\Project 1\Capture day 1\Session 1\Female1.ASF
:FULLY-SPECIFIED
:DEGREES
1540
root 8.21853 15.2703 -35.4616 150.722 84.0465 509.123
lowerback 5.91053 -1.79496 -4.24177
upperback -3.88278 -2.81552 -0.885749
thorax -7.23503 -1.17882 1.78188
lowerneck -8.82442 -6.69301 -9.07235
upperneck 19.9769 -8.91822 7.0135
head 8.38015 -4.15817 2.94727
rclavicle -3.66509e-014 -2.98177e-014
rhumerus -51.525 6.28375 -84.415
rradius 33.6868
rwrist 14.1919
rhand -2.66889 -50.4877
rfingers 7.12502
rthumb 23.0317 -439.131
lclavicle -3.66509e-014 -2.98177e-014
lhumerus -34.4545 0.435238 82.906
lradius 45.5534
lwrist -11.6157
lhand -8.21881 -27.8798
lfingers 7.12502
lthumb 17.6983 1.33478
rfemur -24.0187 22.9855 18.5345
rtibia 19.6063
rfoot -18.6081 -42.2655
rtoes 21.0846
lfemur 14.8067 -6.99088 -30.1817
ltibia 16.7174
lfoot -12.8941 4.34235
ltoes -22.2903
1541
root 8.38028 15.2774 -35.4463 154.743 84.2614 513.309
lowerback 5.84882 -1.74454 -3.86949
upperback -3.90284 -2.70392 -0.738522
thorax -7.23485 -1.13946 1.71387
lowerneck -8.85222 -6.69082 -8.92081
upperneck 20.1479 -8.88857 6.75631
head 8.42102 -4.15314 2.83923
rclavicle -1.18028e-015 2.18663e-015
rhumerus -51.4158 6.52642 -84.6437
rradius 33.6836
rwrist 13.9344
rhand -3.45177 -50.9221
rfingers 7.12502
rthumb 22.2803 -439.658
lclavicle -1.18028e-015 2.18663e-015
lhumerus -34.917 1.01905 82.6859
lradius 44.5697
lwrist -12.2223
lhand -8.35871 -28.1178
lfingers 7.12502
lthumb 17.5637 1.1088
rfemur -23.0339 22.5164 19.6483
rtibia 19.1655
rfoot -14.7972 -41.8937
rtoes 18.4192
lfemur 14.2493 -6.07679 -29.2091
ltibia 18.9993
lfoot -11.9945 3.10182
ltoes -19.7369
1542
root 8.53982 15.2926 -35.4322 159.661 84.4062 518.48
lowerback 5.89311 -1.66866 -3.36954
upperback -3.89909 -2.55504 -0.646723
thorax -7.27952 -1.08905 1.51552
lowerneck -8.87404 -6.75746 -8.8194
upperneck 20.3577 -8.97434 6.62734
head 8.49244 -4.19337 2.76923
rclavicle 3.54085e-015 -1.0138e-014
rhumerus -51.2808 6.55398 -84.7313
rradius 33.5211
rwrist 13.8926
rhand -4.04348 -50.7216
rfingers 7.12502
rthumb 21.7122 -439.524
lclavicle 3.54085e-015 -1.0138e-014
lhumerus -35.3987 1.44421 82.4888
lradius 43.5354
lwrist -12.9327
lhand -9.09126 -28.1249
lfingers 7.12502
lthumb 16.8586 1.16327
rfemur -21.8162 21.37 21.0487
rtibia 18.7291
rfoot -10.2349 -40.6813
rtoes 14.7103
lfemur 13.6114 -5.01787 -28.0612
ltibia 21.5037
lfoot -10.9848 1.76144
ltoes -15.5873
1543
root 8.70192 15.3157 -35.4203 164.194 84.5678 523.269
lowerback 5.88407 -1.62815 -2.78532
upperback -3.86842 -2.44507 -0.594566
thorax -7.26613 -1.06453 1.2302
lowerneck -8.92354 -6.78879 -8.84491
upperneck 20.5587 -9.01959 6.64804
head 8.57587 -4.20975 2.77413
rclavicle -1.86361e-015 -4.17448e-015
rhumerus -51.1689 6.79848 -85.1419
rradius 33.6901
rwrist 14.3533
rhand -3.98573 -51.7644
rfingers 7.12502
rthumb 21.7677 -440.56
lclavicle -1.86361e-015 -4.17448e-015
lhumerus -35.8727 2.1847 82.0796
lradius 42.5381
lwrist -13.5127
lhand -9.64272 -28.0742
lfingers 7.12502
lthumb 16.3277 1.25845
rfemur -20.7252 19.6944 22.5633
rtibia 18.4888
rfoot -4.31813 -39.1518
rtoes 5.58187
lfemur 12.9589 -3.94665 -26.9455
ltibia 23.9821
lfoot -9.44835 0.66018
ltoes -11.3324
1544
root 8.85483 15.3478 -35.4046 170.008 84.5975 529.323
lowerback 6.01819 -1.65388 -2.13726
upperback -3.85726 -2.41988 -0.489794
thorax -7.35296 -1.08163 0.979309
lowerneck -9.03474 -6.77822 -8.86227
upperneck 20.7179 -8.99865 6.64712
head 8.64945 -4.1964 2.77622
rclavicle -9.25591e-015 -4.57205e-015
rhumerus -50.7612 6.61508 -84.9359
rradius 33.6853
rwrist 14.7686
rhand -3.23407 -51.8596
rfingers 7.12502
rthumb 22.4893 -440.57
lclavicle -9.25591e-015 -4.57205e-015
lhumerus -36.3512 3.15213 81.5222
lradius 41.5778
lwrist -14.1883
lhand -9.6006 -28.0712
lfingers 7.12502
lthumb 16.3682 1.25807
rfemur -19.5345 22.3633 22.5937
rtibia 18.2375
rfoot -17.4004 -38.7417
rtoes 34.608
lfemur 12.0885 -3.00914 -25.7449
ltibia 26.643
lfoot -7.52011 -0.143225
ltoes -9.7251
1545
root 9.00803 15.3874 -35.3911 175.518 84.762 535.008
lowerback 6.10347 -1.55268 -1.61284
upperback -3.87582 -2.2307 -0.362564
thorax -7.44148 -1.01114 0.799621
lowerneck -9.00766 -6.80303 -8.84112
upperneck 20.7361 -9.04311 6.66819
head 8.6544 -4.21321 2.77561
rclavicle 1.54928e-014 -6.95746e-015
rhumerus -50.3108 6.66505 -84.8441
rradius 33.4409
rwrist 14.7148
rhand -2.89757 -51.3819
rfingers 7.12502
rthumb 22.8123 -440.053
lclavicle 1.54928e-014 -6.95746e-015
lhumerus -36.8754 3.98389 81.005
lradius 40.5975
lwrist -15.1339
lhand -9.35732 -28.1913
lfingers 7.12502
lthumb 16.6025 1.11853
rfemur -18.2967 21.722 23.5719
rtibia 17.6896
rfoot -20.0588 -36.732
rtoes 40.6641
lfemur 10.9932 -1.63371 -24.4601
ltibia 29.5163
lfoot -5.33864 -0.830136
ltoes -13.3999
